<?xml version="1.0" standalone="no"?>
<!DOCTYPE svg PUBLIC "-//W3C//DTD SVG 20010904//EN"
 "http://www.w3.org/TR/2001/REC-SVG-20010904/DTD/svg10.dtd">
<svg version="1.0" xmlns="http://www.w3.org/2000/svg"
 width="16.000000pt" height="16.000000pt" viewBox="0 0 16.000000 16.000000"
 preserveAspectRatio="xMidYMid meet">
<metadata>
Created by potrace 1.11, written by Peter Selinger 2001-2013
</metadata>
<g transform="translate(0.000000,16.000000) scale(0.003125,-0.003125)"
fill="#000000" stroke="none">
<path d="M2505 4707 c-961 -403 -1716 -724 -1738 -739 -83 -58 -72 -179 20
-227 21 -10 438 -198 928 -417 742 -331 897 -398 935 -398 38 0 186 63 925
393 484 216 902 404 928 418 97 48 116 157 41 225 -11 9 -422 186 -914 394
-876 370 -897 378 -970 381 -67 3 -84 0 -155 -30z m-671 -667 c288 -99 173
-360 -159 -360 -259 0 -412 167 -273 297 31 30 128 73 186 83 68 13 178 4 246
-20z m961 6 c119 -36 196 -121 180 -198 -11 -46 -67 -102 -137 -134 -59 -27
-71 -29 -188 -29 -116 0 -129 2 -185 28 -143 67 -179 165 -93 255 88 91 268
124 423 78z m981 -1 c134 -40 205 -146 159 -236 -71 -136 -405 -174 -555 -64
-43 32 -80 91 -80 128 0 141 263 236 476 172z"/>
<path d="M559 3561 l-39 -39 2 -1193 3 -1194 28 -47 c15 -26 42 -59 61 -73 18
-14 427 -200 908 -415 652 -291 885 -390 913 -390 46 0 96 30 116 67 12 24 14
209 17 1188 2 638 0 1184 -3 1213 -5 38 -14 62 -33 83 -21 22 -248 128 -935
434 -1021 455 -968 437 -1038 366z m978 -1252 c130 -49 204 -304 141 -489 -23
-70 -88 -145 -129 -152 -100 -16 -192 85 -226 246 -34 161 21 341 119 389 39
20 57 21 95 6z"/>
<path d="M3700 3194 c-546 -244 -915 -415 -930 -430 l-25 -24 -3 -1218 c-3
-1115 -2 -1220 14 -1248 23 -45 70 -68 125 -61 56 7 1760 766 1809 806 19 15
47 52 63 81 l27 52 0 1180 c0 1300 4 1214 -60 1252 -65 38 -59 40 -1020 -390z
m510 -290 c65 -26 113 -107 130 -223 35 -222 -109 -464 -242 -408 -162 70
-193 411 -51 577 34 39 80 69 110 70 7 0 31 -7 53 -16z m-744 -1303 c149 -91
164 -426 25 -574 -87 -94 -185 -72 -250 55 -58 113 -55 278 6 403 58 117 143
162 219 116z"/>
</g>
</svg>
